{
  "accessors": [
    {
      "bufferView": 0,
      "componentType": 5125,
      "count": 235572,
      "max": [
        39558
      ],
      "min": [
        0
      ],
      "type": "SCALAR"
    },
    {
      "bufferView": 1,
      "componentType": 5126,
      "count": 39559,
      "max": [
        0.251388281583786,
        1.545986294746399,
        0.24491597712039948
      ],
      "min": [
        -0.2514638900756836,
        1.1088744401931763,
        -0.24468854069709778
      ],
      "type": "VEC3"
    },
    {
      "bufferView": 2,
      "componentType": 5126,
      "count": 39559,
      "max": [
        0.999992847442627,
        0.9999215006828308,
        0.9999984502792358
      ],
      "min": [
        -0.9999992251396179,
        -0.43617957830429077,
        -1.0
      ],
      "type": "VEC3"
    },
    {
      "bufferView": 3,
      "componentType": 5126,
      "count": 39559,
      "max": [
        0.9868408441543579,
        0.9868407845497131
      ],
      "min": [
        0.013159150257706642,
        0.013180136680603027
      ],
      "type": "VEC2"
    }
  ],
  "asset": {
    "generator": "CLO Network OnlineAuth 2024.2.136",
    "version": "2.0"
  },
  "bufferViews": [
    {
      "buffer": 0,
      "byteLength": 942288
    },
    {
      "buffer": 0,
      "byteLength": 474708,
      "byteOffset": 942288
    },
    {
      "buffer": 0,
      "byteLength": 474708,
      "byteOffset": 1416996
    },
    {
      "buffer": 0,
      "byteLength": 316472,
      "byteOffset": 1891704
    }
  ],
  "buffers": [
    {
      "byteLength": 2208176,
      "uri": "data:application/octet-stream;base64,"
    }
  ],
  "extensionsUsed": [
    "KHR_materials_specular"
  ],
  "materials": [
    {
      "doubleSided": true,
      "extensions": {
        "KHR_materials_specular": {
          "specularFactor": 0.15000000596046448
        }
      },
      "name": "09_98973185",
      "pbrMetallicRoughness": {
        "metallicFactor": 0.0,
        "roughnessFactor": 0.5
      }
    }
  ],
  "meshes": [
    {
      "name": "Pattern_811738",
      "primitives": [
        {
          "attributes": {
            "NORMAL": 2,
            "POSITION": 1,
            "TEXCOORD_0": 3
          },
          "indices": 0,
          "material": 0
        }
      ]
    }
  ],
  "nodes": [
    {
      "children": [
        1
      ],
      "name": "ball_fabric_09_Scene_Node"
    },
    {
      "mesh": 0,
      "name": "Cloth"
    }
  ],
  "scene": 0,
  "scenes": [
    {
      "nodes": [
        0
      ]
    }
  ]
}