{
  "accessors": [
    {
      "bufferView": 0,
      "componentType": 5125,
      "count": 236166,
      "max": [
        39657
      ],
      "min": [
        0
      ],
      "type": "SCALAR"
    },
    {
      "bufferView": 1,
      "componentType": 5126,
      "count": 39658,
      "max": [
        0.20553351938724518,
        1.5459474325180054,
        0.1964811384677887
      ],
      "min": [
        -0.20553351938724518,
        1.1019377708435059,
        -0.19852130115032196
      ],
      "type": "VEC3"
    },
    {
      "bufferView": 2,
      "componentType": 5126,
      "count": 39658,
      "max": [
        0.9999980926513672,
        0.9999504685401917,
        0.9999935626983643
      ],
      "min": [
        -0.9999999403953552,
        -0.5108261704444885,
        -0.9999944567680359
      ],
      "type": "VEC3"
    },
    {
      "bufferView": 3,
      "componentType": 5126,
      "count": 39658,
      "max": [
        0.9868409037590027,
        0.9868408441543579
      ],
      "min": [
        0.01315918006002903,
        0.01317983865737915
      ],
      "type": "VEC2"
    }
  ],
  "asset": {
    "generator": "CLO Network OnlineAuth 2024.2.136",
    "version": "2.0"
  },
  "bufferViews": [
    {
      "buffer": 0,
      "byteLength": 944664
    },
    {
      "buffer": 0,
      "byteLength": 475896,
      "byteOffset": 944664
    },
    {
      "buffer": 0,
      "byteLength": 475896,
      "byteOffset": 1420560
    },
    {
      "buffer": 0,
      "byteLength": 317264,
      "byteOffset": 1896456
    }
  ],
  "buffers": [
    {
      "byteLength": 2213720,
      "uri": "data:application/octet-stream;base64,"
    }
  ],
  "extensionsUsed": [
    "KHR_materials_specular"
  ],
  "materials": [
    {
      "doubleSided": true,
      "extensions": {
        "KHR_materials_specular": {
          "specularFactor": 0.15000000596046448
        }
      },
      "name": "05_98606765",
      "pbrMetallicRoughness": {
        "metallicFactor": 0.0,
        "roughnessFactor": 0.5
      }
    }
  ],
  "meshes": [
    {
      "name": "Pattern_811748",
      "primitives": [
        {
          "attributes": {
            "NORMAL": 2,
            "POSITION": 1,
            "TEXCOORD_0": 3
          },
          "indices": 0,
          "material": 0
        }
      ]
    }
  ],
  "nodes": [
    {
      "children": [
        1
      ],
      "name": "ball_fabric_05_Scene_Node"
    },
    {
      "mesh": 0,
      "name": "Cloth"
    }
  ],
  "scene": 0,
  "scenes": [
    {
      "nodes": [
        0
      ]
    }
  ]
}