{
  "accessors": [
    {
      "bufferView": 0,
      "componentType": 5125,
      "count": 236454,
      "max": [
        39705
      ],
      "min": [
        0
      ],
      "type": "SCALAR"
    },
    {
      "bufferView": 1,
      "componentType": 5126,
      "count": 39706,
      "max": [
        0.16182273626327515,
        1.5459797382354736,
        0.16663113236427307
      ],
      "min": [
        -0.16077639162540436,
        1.0646710395812988,
        -0.1631813645362854
      ],
      "type": "VEC3"
    },
    {
      "bufferView": 2,
      "componentType": 5126,
      "count": 39706,
      "max": [
        0.9999900460243225,
        0.9998885989189148,
        0.9999979138374329
      ],
      "min": [
        -0.9999991059303284,
        -0.32163122296333313,
        -0.9999990463256836
      ],
      "type": "VEC3"
    },
    {
      "bufferView": 3,
      "componentType": 5126,
      "count": 39706,
      "max": [
        0.9868408441543579,
        0.9868407249450684
      ],
      "min": [
        0.01315911952406168,
        0.013179659843444824
      ],
      "type": "VEC2"
    }
  ],
  "asset": {
    "generator": "CLO Network OnlineAuth 2024.2.136",
    "version": "2.0"
  },
  "bufferViews": [
    {
      "buffer": 0,
      "byteLength": 945816
    },
    {
      "buffer": 0,
      "byteLength": 476472,
      "byteOffset": 945816
    },
    {
      "buffer": 0,
      "byteLength": 476472,
      "byteOffset": 1422288
    },
    {
      "buffer": 0,
      "byteLength": 317648,
      "byteOffset": 1898760
    }
  ],
  "buffers": [
    {
      "byteLength": 2216408,
      "uri": "data:application/octet-stream;base64,"
    }
  ],
  "extensionsUsed": [
    "KHR_materials_specular"
  ],
  "materials": [
    {
      "doubleSided": true,
      "extensions": {
        "KHR_materials_specular": {
          "specularFactor": 0.15000000596046448
        }
      },
      "name": "00_93220875",
      "pbrMetallicRoughness": {
        "metallicFactor": 0.0,
        "roughnessFactor": 0.5
      }
    }
  ],
  "meshes": [
    {
      "name": "Pattern_811757",
      "primitives": [
        {
          "attributes": {
            "NORMAL": 2,
            "POSITION": 1,
            "TEXCOORD_0": 3
          },
          "indices": 0,
          "material": 0
        }
      ]
    }
  ],
  "nodes": [
    {
      "children": [
        1
      ],
      "name": "ball_fabric_00_Scene_Node"
    },
    {
      "mesh": 0,
      "name": "Cloth"
    }
  ],
  "scene": 0,
  "scenes": [
    {
      "nodes": [
        0
      ]
    }
  ]
}