{
  "accessors": [
    {
      "bufferView": 0,
      "componentType": 5125,
      "count": 235932,
      "max": [
        39618
      ],
      "min": [
        0
      ],
      "type": "SCALAR"
    },
    {
      "bufferView": 1,
      "componentType": 5126,
      "count": 39619,
      "max": [
        0.22658008337020874,
        1.545993447303772,
        0.21551647782325745
      ],
      "min": [
        -0.2268897294998169,
        1.1041022539138794,
        -0.21691888570785522
      ],
      "type": "VEC3"
    },
    {
      "bufferView": 2,
      "componentType": 5126,
      "count": 39619,
      "max": [
        0.9999955892562866,
        0.9999764561653137,
        0.9999749660491943
      ],
      "min": [
        -0.9999993443489075,
        -0.5817124247550964,
        -0.9999803304672241
      ],
      "type": "VEC3"
    },
    {
      "bufferView": 3,
      "componentType": 5126,
      "count": 39619,
      "max": [
        0.9868408441543579,
        0.9868409037590027
      ],
      "min": [
        0.01315911952406168,
        0.013180255889892578
      ],
      "type": "VEC2"
    }
  ],
  "asset": {
    "generator": "CLO Network OnlineAuth 2024.2.136",
    "version": "2.0"
  },
  "bufferViews": [
    {
      "buffer": 0,
      "byteLength": 943728
    },
    {
      "buffer": 0,
      "byteLength": 475428,
      "byteOffset": 943728
    },
    {
      "buffer": 0,
      "byteLength": 475428,
      "byteOffset": 1419156
    },
    {
      "buffer": 0,
      "byteLength": 316952,
      "byteOffset": 1894584
    }
  ],
  "buffers": [
    {
      "byteLength": 2211536,
      "uri": "data:application/octet-stream;base64,"
    }
  ],
  "extensionsUsed": [
    "KHR_materials_specular"
  ],
  "materials": [
    {
      "doubleSided": true,
      "extensions": {
        "KHR_materials_specular": {
          "specularFactor": 0.15000000596046448
        }
      },
      "name": "07_98945709",
      "pbrMetallicRoughness": {
        "metallicFactor": 0.0,
        "roughnessFactor": 0.5
      }
    }
  ],
  "meshes": [
    {
      "name": "Pattern_811739",
      "primitives": [
        {
          "attributes": {
            "NORMAL": 2,
            "POSITION": 1,
            "TEXCOORD_0": 3
          },
          "indices": 0,
          "material": 0
        }
      ]
    }
  ],
  "nodes": [
    {
      "children": [
        1
      ],
      "name": "ball_fabric_07_Scene_Node"
    },
    {
      "mesh": 0,
      "name": "Cloth"
    }
  ],
  "scene": 0,
  "scenes": [
    {
      "nodes": [
        0
      ]
    }
  ]
}