{
  "accessors": [
    {
      "bufferView": 0,
      "componentType": 5125,
      "count": 236454,
      "max": [
        39705
      ],
      "min": [
        0
      ],
      "type": "SCALAR"
    },
    {
      "bufferView": 1,
      "componentType": 5126,
      "count": 39706,
      "max": [
        0.18818078935146332,
        1.545982837677002,
        0.17324143648147583
      ],
      "min": [
        -0.18893104791641235,
        1.1002967357635498,
        -0.17425571382045746
      ],
      "type": "VEC3"
    },
    {
      "bufferView": 2,
      "componentType": 5126,
      "count": 39706,
      "max": [
        0.9999975562095642,
        0.9998764395713806,
        0.9999997615814209
      ],
      "min": [
        -0.9999911785125732,
        -0.6777993440628052,
        -0.9999899864196777
      ],
      "type": "VEC3"
    },
    {
      "bufferView": 3,
      "componentType": 5126,
      "count": 39706,
      "max": [
        0.9868408441543579,
        0.9868407249450684
      ],
      "min": [
        0.01315911952406168,
        0.013179659843444824
      ],
      "type": "VEC2"
    }
  ],
  "asset": {
    "generator": "CLO Network OnlineAuth 2024.2.136",
    "version": "2.0"
  },
  "bufferViews": [
    {
      "buffer": 0,
      "byteLength": 945816
    },
    {
      "buffer": 0,
      "byteLength": 476472,
      "byteOffset": 945816
    },
    {
      "buffer": 0,
      "byteLength": 476472,
      "byteOffset": 1422288
    },
    {
      "buffer": 0,
      "byteLength": 317648,
      "byteOffset": 1898760
    }
  ],
  "buffers": [
    {
      "byteLength": 2216408,
      "uri": "data:application/octet-stream;base64,"
    }
  ],
  "extensionsUsed": [
    "KHR_materials_specular"
  ],
  "materials": [
    {
      "doubleSided": true,
      "extensions": {
        "KHR_materials_specular": {
          "specularFactor": 0.15000000596046448
        }
      },
      "name": "03_96815289",
      "pbrMetallicRoughness": {
        "metallicFactor": 0.0,
        "roughnessFactor": 0.5
      }
    }
  ],
  "meshes": [
    {
      "name": "Pattern_811757",
      "primitives": [
        {
          "attributes": {
            "NORMAL": 2,
            "POSITION": 1,
            "TEXCOORD_0": 3
          },
          "indices": 0,
          "material": 0
        }
      ]
    }
  ],
  "nodes": [
    {
      "children": [
        1
      ],
      "name": "ball_fabric_03_Scene_Node"
    },
    {
      "mesh": 0,
      "name": "Cloth"
    }
  ],
  "scene": 0,
  "scenes": [
    {
      "nodes": [
        0
      ]
    }
  ]
}