{
  "accessors": [
    {
      "bufferView": 0,
      "componentType": 5125,
      "count": 235584,
      "max": [
        39560
      ],
      "min": [
        0
      ],
      "type": "SCALAR"
    },
    {
      "bufferView": 1,
      "componentType": 5126,
      "count": 39561,
      "max": [
        0.19856920838356018,
        1.5459833145141602,
        0.19429990649223328
      ],
      "min": [
        -0.1987573802471161,
        1.1019651889801025,
        -0.1827627569437027
      ],
      "type": "VEC3"
    },
    {
      "bufferView": 2,
      "componentType": 5126,
      "count": 39561,
      "max": [
        0.9999961256980896,
        0.9999108910560608,
        0.9999998807907104
      ],
      "min": [
        -0.9999972581863403,
        -0.5322791337966919,
        -0.9999783039093018
      ],
      "type": "VEC3"
    },
    {
      "bufferView": 3,
      "componentType": 5126,
      "count": 39561,
      "max": [
        0.9868408441543579,
        0.9868409037590027
      ],
      "min": [
        0.01315911952406168,
        0.013179659843444824
      ],
      "type": "VEC2"
    }
  ],
  "asset": {
    "generator": "CLO Network OnlineAuth 2024.2.136",
    "version": "2.0"
  },
  "bufferViews": [
    {
      "buffer": 0,
      "byteLength": 942336
    },
    {
      "buffer": 0,
      "byteLength": 474732,
      "byteOffset": 942336
    },
    {
      "buffer": 0,
      "byteLength": 474732,
      "byteOffset": 1417068
    },
    {
      "buffer": 0,
      "byteLength": 316488,
      "byteOffset": 1891800
    }
  ],
  "buffers": [
    {
      "byteLength": 2208288,
      "uri": "data:application/octet-stream;base64,"
    }
  ],
  "extensionsUsed": [
    "KHR_materials_specular"
  ],
  "materials": [
    {
      "doubleSided": true,
      "extensions": {
        "KHR_materials_specular": {
          "specularFactor": 0.15000000596046448
        }
      },
      "name": "04_98013427",
      "pbrMetallicRoughness": {
        "metallicFactor": 0.0,
        "roughnessFactor": 0.5
      }
    }
  ],
  "meshes": [
    {
      "name": "Pattern_811750",
      "primitives": [
        {
          "attributes": {
            "NORMAL": 2,
            "POSITION": 1,
            "TEXCOORD_0": 3
          },
          "indices": 0,
          "material": 0
        }
      ]
    }
  ],
  "nodes": [
    {
      "children": [
        1
      ],
      "name": "ball_fabric_04_Scene_Node"
    },
    {
      "mesh": 0,
      "name": "Cloth"
    }
  ],
  "scene": 0,
  "scenes": [
    {
      "nodes": [
        0
      ]
    }
  ]
}