{
  "accessors": [
    {
      "bufferView": 0,
      "componentType": 5125,
      "count": 235758,
      "max": [
        39589
      ],
      "min": [
        0
      ],
      "type": "SCALAR"
    },
    {
      "bufferView": 1,
      "componentType": 5126,
      "count": 39590,
      "max": [
        0.21862031519412994,
        1.5459955930709839,
        0.2059955596923828
      ],
      "min": [
        -0.21893957257270813,
        1.103604793548584,
        -0.20786508917808533
      ],
      "type": "VEC3"
    },
    {
      "bufferView": 2,
      "componentType": 5126,
      "count": 39590,
      "max": [
        0.9999523758888245,
        0.9999512434005737,
        0.9999709129333496
      ],
      "min": [
        -0.9999462962150574,
        -0.4965903162956238,
        -0.9999995827674866
      ],
      "type": "VEC3"
    },
    {
      "bufferView": 3,
      "componentType": 5126,
      "count": 39590,
      "max": [
        0.9868408441543579,
        0.9868408441543579
      ],
      "min": [
        0.013159150257706642,
        0.013180255889892578
      ],
      "type": "VEC2"
    }
  ],
  "asset": {
    "generator": "CLO Network OnlineAuth 2024.2.136",
    "version": "2.0"
  },
  "bufferViews": [
    {
      "buffer": 0,
      "byteLength": 943032
    },
    {
      "buffer": 0,
      "byteLength": 475080,
      "byteOffset": 943032
    },
    {
      "buffer": 0,
      "byteLength": 475080,
      "byteOffset": 1418112
    },
    {
      "buffer": 0,
      "byteLength": 316720,
      "byteOffset": 1893192
    }
  ],
  "buffers": [
    {
      "byteLength": 2209912,
      "uri": "data:application/octet-stream;base64,"
    }
  ],
  "extensionsUsed": [
    "KHR_materials_specular"
  ],
  "materials": [
    {
      "doubleSided": true,
      "extensions": {
        "KHR_materials_specular": {
          "specularFactor": 0.15000000596046448
        }
      },
      "name": "06_98909111",
      "pbrMetallicRoughness": {
        "metallicFactor": 0.0,
        "roughnessFactor": 0.5
      }
    }
  ],
  "meshes": [
    {
      "name": "Pattern_811740",
      "primitives": [
        {
          "attributes": {
            "NORMAL": 2,
            "POSITION": 1,
            "TEXCOORD_0": 3
          },
          "indices": 0,
          "material": 0
        }
      ]
    }
  ],
  "nodes": [
    {
      "children": [
        1
      ],
      "name": "ball_fabric_06_Scene_Node"
    },
    {
      "mesh": 0,
      "name": "Cloth"
    }
  ],
  "scene": 0,
  "scenes": [
    {
      "nodes": [
        0
      ]
    }
  ]
}