{
  "accessors": [
    {
      "bufferView": 0,
      "componentType": 5125,
      "count": 4884,
      "max": [
        898
      ],
      "min": [
        0
      ],
      "type": "SCALAR"
    },
    {
      "bufferView": 1,
      "componentType": 5126,
      "count": 899,
      "max": [
        0.12500013411045074,
        0.2674773633480072,
        0.2005309909582138
      ],
      "min": [
        -0.12499988824129105,
        0.01747734658420086,
        -0.19946904480457306
      ],
      "type": "VEC3"
    },
    {
      "bufferView": 2,
      "componentType": 5126,
      "count": 899,
      "max": [
        1.0,
        1.0,
        1.0
      ],
      "min": [
        -1.0,
        -1.0,
        -1.0
      ],
      "type": "VEC3"
    },
    {
      "bufferView": 3,
      "componentType": 5126,
      "count": 899,
      "max": [
        0.9107490181922913,
        0.967523992061615
      ],
      "min": [
        0.031129999086260796,
        0.03247600793838501
      ],
      "type": "VEC2"
    },
    {
      "bufferView": 4,
      "componentType": 5125,
      "count": 4884,
      "max": [
        898
      ],
      "min": [
        0
      ],
      "type": "SCALAR"
    },
    {
      "bufferView": 5,
      "componentType": 5126,
      "count": 899,
      "max": [
        0.12500013411045074,
        0.2674773633480072,
        0.2005309909582138
      ],
      "min": [
        -0.12499988824129105,
        0.01747734658420086,
        -0.19946904480457306
      ],
      "type": "VEC3"
    },
    {
      "bufferView": 6,
      "componentType": 5126,
      "count": 899,
      "max": [
        1.0,
        1.0,
        1.0
      ],
      "min": [
        -1.0,
        -1.0,
        -1.0
      ],
      "type": "VEC3"
    },
    {
      "bufferView": 7,
      "componentType": 5126,
      "count": 899,
      "max": [
        0.9107490181922913,
        0.967523992061615
      ],
      "min": [
        0.031129999086260796,
        0.03247600793838501
      ],
      "type": "VEC2"
    }
  ],
  "asset": {
    "generator": "CLO Network OnlineAuth 2024.2.136",
    "version": "2.0"
  },
  "bufferViews": [
    {
      "buffer": 0,
      "byteLength": 19536
    },
    {
      "buffer": 0,
      "byteLength": 10788,
      "byteOffset": 19536
    },
    {
      "buffer": 0,
      "byteLength": 10788,
      "byteOffset": 30324
    },
    {
      "buffer": 0,
      "byteLength": 7192,
      "byteOffset": 41112
    },
    {
      "buffer": 0,
      "byteLength": 19536,
      "byteOffset": 48304
    },
    {
      "buffer": 0,
      "byteLength": 10788,
      "byteOffset": 67840
    },
    {
      "buffer": 0,
      "byteLength": 10788,
      "byteOffset": 78628
    },
    {
      "buffer": 0,
      "byteLength": 7192,
      "byteOffset": 89416
    }
  ],
  "buffers": [
    {
      "byteLength": 96608,
      "uri": "data:application/octet-stream;base64,"
    }
  ],
  "extensionsUsed": [
    "KHR_materials_specular"
  ],
  "materials": [
    {
      "extensions": {
        "KHR_materials_specular": {
          "specularFactor": 0.15000000596046448
        }
      },
      "name": "Material2622",
      "pbrMetallicRoughness": {
        "metallicFactor": 0.0,
        "roughnessFactor": 0.5
      }
    }
  ],
  "meshes": [
    {
      "name": "Obj_Avatar_Shape",
      "primitives": [
        {
          "attributes": {
            "NORMAL": 2,
            "POSITION": 1,
            "TEXCOORD_0": 3
          },
          "indices": 0,
          "material": 0
        }
      ]
    },
    {
      "name": "Obj_Avatar_Shape",
      "primitives": [
        {
          "attributes": {
            "NORMAL": 6,
            "POSITION": 5,
            "TEXCOORD_0": 7
          },
          "indices": 4,
          "material": 0
        }
      ]
    }
  ],
  "nodes": [
    {
      "children": [
        1
      ],
      "name": "bar2_Scene_Node"
    },
    {
      "children": [
        2,
        4
      ],
      "name": "Avatar"
    },
    {
      "children": [
        3
      ],
      "matrix": [
        1.0132789718397817e-08,
        0.0,
        0.08000000566244125,
        0.0,
        0.0,
        0.08000000566244125,
        0.0,
        0.0,
        -1.875000238418579,
        0.0,
        2.3748725652694702e-07,
        0.0,
        0.0009956866269931197,
        1.4089686870574951,
        -0.03170674666762352,
        1.0
      ],
      "name": "3D_Shape_03"
    },
    {
      "mesh": 0,
      "name": "Obj_Avatar_Shape"
    },
    {
      "children": [
        5
      ],
      "matrix": [
        -2.2351741790771484e-08,
        0.0,
        -0.08000002801418304,
        0.0,
        0.0,
        0.07999999821186066,
        0.0,
        0.0,
        1.875,
        0.0,
        1.1920928955078125e-07,
        0.0,
        -0.001004774821922183,
        1.36440110206604,
        0.12525694072246552,
        1.0
      ],
      "name": "3D_Shape_03"
    },
    {
      "mesh": 1,
      "name": "Obj_Avatar_Shape"
    }
  ],
  "scene": 0,
  "scenes": [
    {
      "nodes": [
        0
      ]
    }
  ]
}