{
  "accessors": [
    {
      "bufferView": 0,
      "componentType": 5125,
      "count": 201894,
      "max": [
        33936
      ],
      "min": [
        0
      ],
      "type": "SCALAR"
    },
    {
      "bufferView": 1,
      "componentType": 5126,
      "count": 33937,
      "max": [
        0.25411146879196167,
        1.6692990064620972,
        0.14612112939357758
      ],
      "min": [
        -0.25574666261672974,
        0.9429083466529846,
        -0.2139691859483719
      ],
      "type": "VEC3"
    },
    {
      "bufferView": 2,
      "componentType": 5126,
      "count": 33937,
      "max": [
        0.8158796429634094,
        0.9999992251396179,
        1.0
      ],
      "min": [
        -0.8719225525856018,
        -0.970974326133728,
        -0.8947417140007019
      ],
      "type": "VEC3"
    },
    {
      "bufferView": 3,
      "componentType": 5126,
      "count": 33937,
      "max": [
        0.546461820602417,
        0.9894178509712219
      ],
      "min": [
        0.0105820931494236,
        0.01058197021484375
      ],
      "type": "VEC2"
    }
  ],
  "asset": {
    "generator": "CLO Network OnlineAuth 2024.2.136",
    "version": "2.0"
  },
  "bufferViews": [
    {
      "buffer": 0,
      "byteLength": 807576
    },
    {
      "buffer": 0,
      "byteLength": 407244,
      "byteOffset": 807576
    },
    {
      "buffer": 0,
      "byteLength": 407244,
      "byteOffset": 1214820
    },
    {
      "buffer": 0,
      "byteLength": 271496,
      "byteOffset": 1622064
    }
  ],
  "buffers": [
    {
      "byteLength": 1893560,
      "uri": "data:application/octet-stream;base64,"
    }
  ],
  "extensionsUsed": [
    "KHR_materials_specular"
  ],
  "materials": [
    {
      "doubleSided": true,
      "extensions": {
        "KHR_materials_specular": {
          "specularFactor": 0.15000000596046448
        }
      },
      "name": "00_59117627",
      "pbrMetallicRoughness": {
        "metallicFactor": 0.0,
        "roughnessFactor": 0.5
      }
    }
  ],
  "meshes": [
    {
      "name": "Pattern_811793",
      "primitives": [
        {
          "attributes": {
            "NORMAL": 2,
            "POSITION": 1,
            "TEXCOORD_0": 3
          },
          "indices": 0,
          "material": 0
        }
      ]
    }
  ],
  "nodes": [
    {
      "children": [
        1
      ],
      "name": "bar2_fabric_01_Scene_Node"
    },
    {
      "mesh": 0,
      "name": "Cloth"
    }
  ],
  "scene": 0,
  "scenes": [
    {
      "nodes": [
        0
      ]
    }
  ]
}