{
  "accessors": [
    {
      "bufferView": 0,
      "componentType": 5125,
      "count": 201894,
      "max": [
        33936
      ],
      "min": [
        0
      ],
      "type": "SCALAR"
    },
    {
      "bufferView": 1,
      "componentType": 5126,
      "count": 33937,
      "max": [
        0.2552606165409088,
        1.6692990064620972,
        0.15086030960083008
      ],
      "min": [
        -0.2523120045661926,
        0.9553110003471375,
        -0.221258282661438
      ],
      "type": "VEC3"
    },
    {
      "bufferView": 2,
      "componentType": 5126,
      "count": 33937,
      "max": [
        0.44647112488746643,
        0.9999986290931702,
        0.9999999403953552
      ],
      "min": [
        -0.5311173796653748,
        -0.6499285697937012,
        -0.7434075474739075
      ],
      "type": "VEC3"
    },
    {
      "bufferView": 3,
      "componentType": 5126,
      "count": 33937,
      "max": [
        0.546461820602417,
        0.9894178509712219
      ],
      "min": [
        0.0105820931494236,
        0.01058197021484375
      ],
      "type": "VEC2"
    }
  ],
  "asset": {
    "generator": "CLO Network OnlineAuth 2024.2.136",
    "version": "2.0"
  },
  "bufferViews": [
    {
      "buffer": 0,
      "byteLength": 807576
    },
    {
      "buffer": 0,
      "byteLength": 407244,
      "byteOffset": 807576
    },
    {
      "buffer": 0,
      "byteLength": 407244,
      "byteOffset": 1214820
    },
    {
      "buffer": 0,
      "byteLength": 271496,
      "byteOffset": 1622064
    }
  ],
  "buffers": [
    {
      "byteLength": 1893560,
      "uri": "data:application/octet-stream;base64,"
    }
  ],
  "extensionsUsed": [
    "KHR_materials_specular"
  ],
  "materials": [
    {
      "doubleSided": true,
      "extensions": {
        "KHR_materials_specular": {
          "specularFactor": 0.15000000596046448
        }
      },
      "name": "00_83635207",
      "pbrMetallicRoughness": {
        "metallicFactor": 0.0,
        "roughnessFactor": 0.5
      }
    }
  ],
  "meshes": [
    {
      "name": "Pattern_811793",
      "primitives": [
        {
          "attributes": {
            "NORMAL": 2,
            "POSITION": 1,
            "TEXCOORD_0": 3
          },
          "indices": 0,
          "material": 0
        }
      ]
    }
  ],
  "nodes": [
    {
      "children": [
        1
      ],
      "name": "bar2_fabric_08_Scene_Node"
    },
    {
      "mesh": 0,
      "name": "Cloth"
    }
  ],
  "scene": 0,
  "scenes": [
    {
      "nodes": [
        0
      ]
    }
  ]
}