{
  "accessors": [
    {
      "bufferView": 0,
      "componentType": 5125,
      "count": 236004,
      "max": [
        39630
      ],
      "min": [
        0
      ],
      "type": "SCALAR"
    },
    {
      "bufferView": 1,
      "componentType": 5126,
      "count": 39631,
      "max": [
        0.18546760082244873,
        1.5287177562713623,
        0.1826203465461731
      ],
      "min": [
        -0.1841396540403366,
        1.1489425897598267,
        -0.18484164774417877
      ],
      "type": "VEC3"
    },
    {
      "bufferView": 2,
      "componentType": 5126,
      "count": 39631,
      "max": [
        0.9999974966049194,
        0.9999985694885254,
        0.9999988079071045
      ],
      "min": [
        -0.9999940991401672,
        -0.271322101354599,
        -0.9999998211860657
      ],
      "type": "VEC3"
    },
    {
      "bufferView": 3,
      "componentType": 5126,
      "count": 39631,
      "max": [
        0.98997563123703,
        -0.010000000707805157
      ],
      "min": [
        0.010000061243772507,
        -0.9900000691413879
      ],
      "type": "VEC2"
    }
  ],
  "asset": {
    "generator": "CLO Network OnlineAuth",
    "version": "2.0"
  },
  "bufferViews": [
    {
      "buffer": 0,
      "byteLength": 944016
    },
    {
      "buffer": 0,
      "byteLength": 475572,
      "byteOffset": 944016
    },
    {
      "buffer": 0,
      "byteLength": 475572,
      "byteOffset": 1419588
    },
    {
      "buffer": 0,
      "byteLength": 317048,
      "byteOffset": 1895160
    }
  ],
  "buffers": [
    {
      "byteLength": 2212208,
      "uri": "data:application/octet-stream;base64,"
    }
  ],
  "extensionsUsed": [
    "KHR_materials_specular"
  ],
  "materials": [
    {
      "doubleSided": true,
      "extensions": {
        "KHR_materials_specular": {
          "specularFactor": 0.15000000596046448
        }
      },
      "name": "FABRIC 1_1003223"
    }
  ],
  "meshes": [
    {
      "name": "Cloth_mesh",
      "primitives": [
        {
          "attributes": {
            "NORMAL": 2,
            "POSITION": 1,
            "TEXCOORD_0": 3
          },
          "indices": 0,
          "material": 0
        }
      ]
    }
  ],
  "nodes": [
    {
      "children": [
        1
      ],
      "name": "CUBE_FABRIC_3_Scene_Node"
    },
    {
      "mesh": 0,
      "name": "Cloth"
    }
  ],
  "scene": 0,
  "scenes": [
    {
      "nodes": [
        0
      ]
    }
  ]
}