{
  "accessors": [
    {
      "bufferView": 0,
      "componentType": 5125,
      "count": 236004,
      "max": [
        39630
      ],
      "min": [
        0
      ],
      "type": "SCALAR"
    },
    {
      "bufferView": 1,
      "componentType": 5126,
      "count": 39631,
      "max": [
        0.17289243638515472,
        1.528717041015625,
        0.1749626249074936
      ],
      "min": [
        -0.1713576763868332,
        1.143867015838623,
        -0.17623022198677063
      ],
      "type": "VEC3"
    },
    {
      "bufferView": 2,
      "componentType": 5126,
      "count": 39631,
      "max": [
        0.9999996423721313,
        0.9999985694885254,
        0.9999927282333374
      ],
      "min": [
        -0.999995231628418,
        -0.24527870118618011,
        -0.9999973177909851
      ],
      "type": "VEC3"
    },
    {
      "bufferView": 3,
      "componentType": 5126,
      "count": 39631,
      "max": [
        0.98997563123703,
        -0.010000000707805157
      ],
      "min": [
        0.010000061243772507,
        -0.9900000691413879
      ],
      "type": "VEC2"
    }
  ],
  "asset": {
    "generator": "CLO Network OnlineAuth",
    "version": "2.0"
  },
  "bufferViews": [
    {
      "buffer": 0,
      "byteLength": 944016
    },
    {
      "buffer": 0,
      "byteLength": 475572,
      "byteOffset": 944016
    },
    {
      "buffer": 0,
      "byteLength": 475572,
      "byteOffset": 1419588
    },
    {
      "buffer": 0,
      "byteLength": 317048,
      "byteOffset": 1895160
    }
  ],
  "buffers": [
    {
      "byteLength": 2212208,
      "uri": "data:application/octet-stream;base64,"
    }
  ],
  "extensionsUsed": [
    "KHR_materials_specular"
  ],
  "materials": [
    {
      "doubleSided": true,
      "extensions": {
        "KHR_materials_specular": {
          "specularFactor": 0.15000000596046448
        }
      },
      "name": "FABRIC 1_956624"
    }
  ],
  "meshes": [
    {
      "name": "Cloth_mesh",
      "primitives": [
        {
          "attributes": {
            "NORMAL": 2,
            "POSITION": 1,
            "TEXCOORD_0": 3
          },
          "indices": 0,
          "material": 0
        }
      ]
    }
  ],
  "nodes": [
    {
      "children": [
        1
      ],
      "name": "CUBE_FABRIC_2_Scene_Node"
    },
    {
      "mesh": 0,
      "name": "Cloth"
    }
  ],
  "scene": 0,
  "scenes": [
    {
      "nodes": [
        0
      ]
    }
  ]
}