{
  "accessors": [
    {
      "bufferView": 0,
      "componentType": 5125,
      "count": 236004,
      "max": [
        39630
      ],
      "min": [
        0
      ],
      "type": "SCALAR"
    },
    {
      "bufferView": 1,
      "componentType": 5126,
      "count": 39631,
      "max": [
        0.15752370655536652,
        1.5287164449691772,
        0.1613231748342514
      ],
      "min": [
        -0.15837112069129944,
        1.1349705457687378,
        -0.16287392377853394
      ],
      "type": "VEC3"
    },
    {
      "bufferView": 2,
      "componentType": 5126,
      "count": 39631,
      "max": [
        0.9999995231628418,
        0.9999983906745911,
        0.9999999403953552
      ],
      "min": [
        -0.9999992847442627,
        -0.18254540860652924,
        -0.9999995827674866
      ],
      "type": "VEC3"
    },
    {
      "bufferView": 3,
      "componentType": 5126,
      "count": 39631,
      "max": [
        0.98997563123703,
        -0.010000000707805157
      ],
      "min": [
        0.010000061243772507,
        -0.9900000691413879
      ],
      "type": "VEC2"
    }
  ],
  "asset": {
    "generator": "CLO Network OnlineAuth",
    "version": "2.0"
  },
  "bufferViews": [
    {
      "buffer": 0,
      "byteLength": 944016
    },
    {
      "buffer": 0,
      "byteLength": 475572,
      "byteOffset": 944016
    },
    {
      "buffer": 0,
      "byteLength": 475572,
      "byteOffset": 1419588
    },
    {
      "buffer": 0,
      "byteLength": 317048,
      "byteOffset": 1895160
    }
  ],
  "buffers": [
    {
      "byteLength": 2212208,
      "uri": "data:application/octet-stream;base64,"
    }
  ],
  "extensionsUsed": [
    "KHR_materials_specular"
  ],
  "materials": [
    {
      "doubleSided": true,
      "extensions": {
        "KHR_materials_specular": {
          "specularFactor": 0.15000000596046448
        }
      },
      "name": "FABRIC 1_910025"
    }
  ],
  "meshes": [
    {
      "name": "Cloth_mesh",
      "primitives": [
        {
          "attributes": {
            "NORMAL": 2,
            "POSITION": 1,
            "TEXCOORD_0": 3
          },
          "indices": 0,
          "material": 0
        }
      ]
    }
  ],
  "nodes": [
    {
      "children": [
        1
      ],
      "name": "CUBE_FABRIC_1_Scene_Node"
    },
    {
      "mesh": 0,
      "name": "Cloth"
    }
  ],
  "scene": 0,
  "scenes": [
    {
      "nodes": [
        0
      ]
    }
  ]
}