{
  "accessors": [
    {
      "bufferView": 0,
      "componentType": 5125,
      "count": 236004,
      "max": [
        39630
      ],
      "min": [
        0
      ],
      "type": "SCALAR"
    },
    {
      "bufferView": 1,
      "componentType": 5126,
      "count": 39631,
      "max": [
        0.22439666092395782,
        1.5287176370620728,
        0.19695289433002472
      ],
      "min": [
        -0.22297391295433044,
        1.1530077457427979,
        -0.20022496581077576
      ],
      "type": "VEC3"
    },
    {
      "bufferView": 2,
      "componentType": 5126,
      "count": 39631,
      "max": [
        0.9999997019767761,
        0.9999987483024597,
        0.9999997615814209
      ],
      "min": [
        -0.9999993443489075,
        -0.19489164650440216,
        -0.9999952912330627
      ],
      "type": "VEC3"
    },
    {
      "bufferView": 3,
      "componentType": 5126,
      "count": 39631,
      "max": [
        0.98997563123703,
        -0.010000000707805157
      ],
      "min": [
        0.010000061243772507,
        -0.9900000691413879
      ],
      "type": "VEC2"
    }
  ],
  "asset": {
    "generator": "CLO Network OnlineAuth",
    "version": "2.0"
  },
  "bufferViews": [
    {
      "buffer": 0,
      "byteLength": 944016
    },
    {
      "buffer": 0,
      "byteLength": 475572,
      "byteOffset": 944016
    },
    {
      "buffer": 0,
      "byteLength": 475572,
      "byteOffset": 1419588
    },
    {
      "buffer": 0,
      "byteLength": 317048,
      "byteOffset": 1895160
    }
  ],
  "buffers": [
    {
      "byteLength": 2212208,
      "uri": "data:application/octet-stream;base64,"
    }
  ],
  "extensionsUsed": [
    "KHR_materials_specular"
  ],
  "materials": [
    {
      "doubleSided": true,
      "extensions": {
        "KHR_materials_specular": {
          "specularFactor": 0.15000000596046448
        }
      },
      "name": "FABRIC 1_1236218"
    }
  ],
  "meshes": [
    {
      "name": "Cloth_mesh",
      "primitives": [
        {
          "attributes": {
            "NORMAL": 2,
            "POSITION": 1,
            "TEXCOORD_0": 3
          },
          "indices": 0,
          "material": 0
        }
      ]
    }
  ],
  "nodes": [
    {
      "children": [
        1
      ],
      "name": "CUBE_FABRIC_8_Scene_Node"
    },
    {
      "mesh": 0,
      "name": "Cloth"
    }
  ],
  "scene": 0,
  "scenes": [
    {
      "nodes": [
        0
      ]
    }
  ]
}