{
  "accessors": [
    {
      "bufferView": 0,
      "componentType": 5125,
      "count": 236004,
      "max": [
        39630
      ],
      "min": [
        0
      ],
      "type": "SCALAR"
    },
    {
      "bufferView": 1,
      "componentType": 5126,
      "count": 39631,
      "max": [
        0.20174317061901093,
        1.5287175178527832,
        0.1913587749004364
      ],
      "min": [
        -0.19976197183132172,
        1.1516354084014893,
        -0.1936233639717102
      ],
      "type": "VEC3"
    },
    {
      "bufferView": 2,
      "componentType": 5126,
      "count": 39631,
      "max": [
        0.9999975562095642,
        0.9999985098838806,
        0.9999999403953552
      ],
      "min": [
        -0.999998927116394,
        -0.27136191725730896,
        -1.0
      ],
      "type": "VEC3"
    },
    {
      "bufferView": 3,
      "componentType": 5126,
      "count": 39631,
      "max": [
        0.98997563123703,
        -0.010000000707805157
      ],
      "min": [
        0.010000061243772507,
        -0.9900000691413879
      ],
      "type": "VEC2"
    }
  ],
  "asset": {
    "generator": "CLO Network OnlineAuth",
    "version": "2.0"
  },
  "bufferViews": [
    {
      "buffer": 0,
      "byteLength": 944016
    },
    {
      "buffer": 0,
      "byteLength": 475572,
      "byteOffset": 944016
    },
    {
      "buffer": 0,
      "byteLength": 475572,
      "byteOffset": 1419588
    },
    {
      "buffer": 0,
      "byteLength": 317048,
      "byteOffset": 1895160
    }
  ],
  "buffers": [
    {
      "byteLength": 2212208,
      "uri": "data:application/octet-stream;base64,"
    }
  ],
  "extensionsUsed": [
    "KHR_materials_specular"
  ],
  "materials": [
    {
      "doubleSided": true,
      "extensions": {
        "KHR_materials_specular": {
          "specularFactor": 0.15000000596046448
        }
      },
      "name": "FABRIC 1_1143020"
    }
  ],
  "meshes": [
    {
      "name": "Cloth_mesh",
      "primitives": [
        {
          "attributes": {
            "NORMAL": 2,
            "POSITION": 1,
            "TEXCOORD_0": 3
          },
          "indices": 0,
          "material": 0
        }
      ]
    }
  ],
  "nodes": [
    {
      "children": [
        1
      ],
      "name": "CUBE_FABRIC_6_Scene_Node"
    },
    {
      "mesh": 0,
      "name": "Cloth"
    }
  ],
  "scene": 0,
  "scenes": [
    {
      "nodes": [
        0
      ]
    }
  ]
}