{
  "accessors": [
    {
      "bufferView": 0,
      "componentType": 5125,
      "count": 16188,
      "max": [
        4600
      ],
      "min": [
        0
      ],
      "type": "SCALAR"
    },
    {
      "bufferView": 1,
      "componentType": 5126,
      "count": 4601,
      "max": [
        0.20465199649333954,
        1.4080990552902222,
        0.20465199649333954
      ],
      "min": [
        -0.20465199649333954,
        1.3918750286102295,
        -0.20465199649333954
      ],
      "type": "VEC3"
    },
    {
      "bufferView": 2,
      "componentType": 5126,
      "count": 4601,
      "max": [
        0.9984129667282104,
        0.9999994039535522,
        0.9984131455421448
      ],
      "min": [
        -0.9984131455421448,
        -0.9999493360519409,
        -0.9984131455421448
      ],
      "type": "VEC3"
    },
    {
      "bufferView": 3,
      "componentType": 5126,
      "count": 4601,
      "max": [
        1.0,
        0.9900000095367432
      ],
      "min": [
        9.999999974752427e-07,
        0.0
      ],
      "type": "VEC2"
    }
  ],
  "asset": {
    "generator": "CLO Network OnlineAuth 2024.2.136",
    "version": "2.0"
  },
  "bufferViews": [
    {
      "buffer": 0,
      "byteLength": 64752
    },
    {
      "buffer": 0,
      "byteLength": 55212,
      "byteOffset": 64752
    },
    {
      "buffer": 0,
      "byteLength": 55212,
      "byteOffset": 119964
    },
    {
      "buffer": 0,
      "byteLength": 36808,
      "byteOffset": 175176
    }
  ],
  "buffers": [
    {
      "byteLength": 211984,
      "uri": "data:application/octet-stream;base64,"
    }
  ],
  "extensionsUsed": [
    "KHR_materials_specular"
  ],
  "materials": [
    {
      "extensions": {
        "KHR_materials_specular": {
          "specularFactor": 0.15000000596046448
        }
      },
      "name": "Material697388",
      "pbrMetallicRoughness": {
        "baseColorFactor": [
          0.6120656132698059,
          0.6120656132698059,
          0.6120656132698059,
          1.0
        ],
        "metallicFactor": 0.0,
        "roughnessFactor": 0.2200000286102295
      }
    }
  ],
  "meshes": [
    {
      "name": "Obj_Avatar_Shape",
      "primitives": [
        {
          "attributes": {
            "NORMAL": 2,
            "POSITION": 1,
            "TEXCOORD_0": 3
          },
          "indices": 0,
          "material": 0
        }
      ]
    }
  ],
  "nodes": [
    {
      "children": [
        1
      ],
      "name": "table_Scene_Node"
    },
    {
      "children": [
        2
      ],
      "name": "Avatar"
    },
    {
      "children": [
        3
      ],
      "name": "tabel3"
    },
    {
      "children": [
        4
      ],
      "matrix": [
        1.0,
        0.0,
        0.0,
        0.0,
        0.0,
        1.0,
        0.0,
        0.0,
        0.0,
        0.0,
        1.0,
        0.0,
        0.0,
        0.08548039197921753,
        0.0,
        1.0
      ],
      "name": "Obj_Avatar_Shape"
    },
    {
      "mesh": 0,
      "name": "Obj_Avatar_Shape"
    }
  ],
  "scene": 0,
  "scenes": [
    {
      "nodes": [
        0
      ]
    }
  ]
}