{
  "accessors": [
    {
      "bufferView": 0,
      "componentType": 5125,
      "count": 236142,
      "max": [
        39653
      ],
      "min": [
        0
      ],
      "type": "SCALAR"
    },
    {
      "bufferView": 1,
      "componentType": 5126,
      "count": 39654,
      "max": [
        0.25243625044822693,
        1.4990119934082031,
        0.2539540231227875
      ],
      "min": [
        -0.2519282400608063,
        1.1804418563842773,
        -0.25337886810302734
      ],
      "type": "VEC3"
    },
    {
      "bufferView": 2,
      "componentType": 5126,
      "count": 39654,
      "max": [
        0.9999009370803833,
        1.0,
        0.9999698996543884
      ],
      "min": [
        -0.9999839663505554,
        -0.37402698397636414,
        -0.9999635815620422
      ],
      "type": "VEC3"
    },
    {
      "bufferView": 3,
      "componentType": 5126,
      "count": 39654,
      "max": [
        0.9868409037590027,
        0.9868409037590027
      ],
      "min": [
        0.013159272260963917,
        0.013180077075958252
      ],
      "type": "VEC2"
    }
  ],
  "asset": {
    "generator": "CLO Network OnlineAuth 2024.2.136",
    "version": "2.0"
  },
  "bufferViews": [
    {
      "buffer": 0,
      "byteLength": 944568
    },
    {
      "buffer": 0,
      "byteLength": 475848,
      "byteOffset": 944568
    },
    {
      "buffer": 0,
      "byteLength": 475848,
      "byteOffset": 1420416
    },
    {
      "buffer": 0,
      "byteLength": 317232,
      "byteOffset": 1896264
    }
  ],
  "buffers": [
    {
      "byteLength": 2213496,
      "uri": "data:application/octet-stream;base64,"
    }
  ],
  "extensionsUsed": [
    "KHR_materials_specular"
  ],
  "materials": [
    {
      "doubleSided": true,
      "extensions": {
        "KHR_materials_specular": {
          "specularFactor": 0.15000000596046448
        }
      },
      "name": "07_3072754",
      "pbrMetallicRoughness": {
        "metallicFactor": 0.0,
        "roughnessFactor": 0.5
      }
    }
  ],
  "meshes": [
    {
      "name": "Pattern_811746",
      "primitives": [
        {
          "attributes": {
            "NORMAL": 2,
            "POSITION": 1,
            "TEXCOORD_0": 3
          },
          "indices": 0,
          "material": 0
        }
      ]
    }
  ],
  "nodes": [
    {
      "children": [
        1
      ],
      "name": "table_fabric_07_Scene_Node"
    },
    {
      "mesh": 0,
      "name": "Cloth"
    }
  ],
  "scene": 0,
  "scenes": [
    {
      "nodes": [
        0
      ]
    }
  ]
}