{
  "accessors": [
    {
      "bufferView": 0,
      "componentType": 5125,
      "count": 236802,
      "max": [
        39763
      ],
      "min": [
        0
      ],
      "type": "SCALAR"
    },
    {
      "bufferView": 1,
      "componentType": 5126,
      "count": 39764,
      "max": [
        0.2343791425228119,
        1.4986143112182617,
        0.23238562047481537
      ],
      "min": [
        -0.2351369857788086,
        1.1735621690750122,
        -0.22851935029029846
      ],
      "type": "VEC3"
    },
    {
      "bufferView": 2,
      "componentType": 5126,
      "count": 39764,
      "max": [
        0.9999889731407166,
        1.0,
        0.9999946355819702
      ],
      "min": [
        -0.9999994039535522,
        -0.36789482831954956,
        -0.9999957084655762
      ],
      "type": "VEC3"
    },
    {
      "bufferView": 3,
      "componentType": 5126,
      "count": 39764,
      "max": [
        0.9868407249450684,
        0.9868408441543579
      ],
      "min": [
        0.013159088790416718,
        0.013180375099182129
      ],
      "type": "VEC2"
    }
  ],
  "asset": {
    "generator": "CLO Network OnlineAuth 2024.2.136",
    "version": "2.0"
  },
  "bufferViews": [
    {
      "buffer": 0,
      "byteLength": 947208
    },
    {
      "buffer": 0,
      "byteLength": 477168,
      "byteOffset": 947208
    },
    {
      "buffer": 0,
      "byteLength": 477168,
      "byteOffset": 1424376
    },
    {
      "buffer": 0,
      "byteLength": 318112,
      "byteOffset": 1901544
    }
  ],
  "buffers": [
    {
      "byteLength": 2219656,
      "uri": "data:application/octet-stream;base64,"
    }
  ],
  "extensionsUsed": [
    "KHR_materials_specular"
  ],
  "materials": [
    {
      "doubleSided": true,
      "extensions": {
        "KHR_materials_specular": {
          "specularFactor": 0.15000000596046448
        }
      },
      "name": "02_53247965",
      "pbrMetallicRoughness": {
        "metallicFactor": 0.0,
        "roughnessFactor": 0.5
      }
    }
  ],
  "meshes": [
    {
      "name": "Pattern_811749",
      "primitives": [
        {
          "attributes": {
            "NORMAL": 2,
            "POSITION": 1,
            "TEXCOORD_0": 3
          },
          "indices": 0,
          "material": 0
        }
      ]
    }
  ],
  "nodes": [
    {
      "children": [
        1
      ],
      "name": "table_fabric_02_Scene_Node"
    },
    {
      "mesh": 0,
      "name": "Cloth"
    }
  ],
  "scene": 0,
  "scenes": [
    {
      "nodes": [
        0
      ]
    }
  ]
}