{
  "accessors": [
    {
      "bufferView": 0,
      "componentType": 5125,
      "count": 236718,
      "max": [
        39749
      ],
      "min": [
        0
      ],
      "type": "SCALAR"
    },
    {
      "bufferView": 1,
      "componentType": 5126,
      "count": 39750,
      "max": [
        0.24117015302181244,
        1.498989224433899,
        0.24641144275665283
      ],
      "min": [
        -0.23790928721427917,
        1.179337978363037,
        -0.24773235619068146
      ],
      "type": "VEC3"
    },
    {
      "bufferView": 2,
      "componentType": 5126,
      "count": 39750,
      "max": [
        0.9999942779541016,
        1.0,
        0.9999858140945435
      ],
      "min": [
        -0.9999958872795105,
        -0.29736268520355225,
        -0.9999951720237732
      ],
      "type": "VEC3"
    },
    {
      "bufferView": 3,
      "componentType": 5126,
      "count": 39750,
      "max": [
        0.9868407249450684,
        0.9868409037590027
      ],
      "min": [
        0.013159150257706642,
        0.013180315494537354
      ],
      "type": "VEC2"
    }
  ],
  "asset": {
    "generator": "CLO Network OnlineAuth 2024.2.136",
    "version": "2.0"
  },
  "bufferViews": [
    {
      "buffer": 0,
      "byteLength": 946872
    },
    {
      "buffer": 0,
      "byteLength": 477000,
      "byteOffset": 946872
    },
    {
      "buffer": 0,
      "byteLength": 477000,
      "byteOffset": 1423872
    },
    {
      "buffer": 0,
      "byteLength": 318000,
      "byteOffset": 1900872
    }
  ],
  "buffers": [
    {
      "byteLength": 2218872,
      "uri": "data:application/octet-stream;base64,"
    }
  ],
  "extensionsUsed": [
    "KHR_materials_specular"
  ],
  "materials": [
    {
      "doubleSided": true,
      "extensions": {
        "KHR_materials_specular": {
          "specularFactor": 0.15000000596046448
        }
      },
      "name": "05_3012466",
      "pbrMetallicRoughness": {
        "metallicFactor": 0.0,
        "roughnessFactor": 0.5
      }
    }
  ],
  "meshes": [
    {
      "name": "Pattern_811749",
      "primitives": [
        {
          "attributes": {
            "NORMAL": 2,
            "POSITION": 1,
            "TEXCOORD_0": 3
          },
          "indices": 0,
          "material": 0
        }
      ]
    }
  ],
  "nodes": [
    {
      "children": [
        1
      ],
      "name": "table_fabric_05_Scene_Node"
    },
    {
      "mesh": 0,
      "name": "Cloth"
    }
  ],
  "scene": 0,
  "scenes": [
    {
      "nodes": [
        0
      ]
    }
  ]
}