{
  "accessors": [
    {
      "bufferView": 0,
      "componentType": 5125,
      "count": 235320,
      "max": [
        39516
      ],
      "min": [
        0
      ],
      "type": "SCALAR"
    },
    {
      "bufferView": 1,
      "componentType": 5126,
      "count": 39517,
      "max": [
        0.2420489490032196,
        1.4988371133804321,
        0.25028249621391296
      ],
      "min": [
        -0.24090243875980377,
        1.179989218711853,
        -0.25179198384284973
      ],
      "type": "VEC3"
    },
    {
      "bufferView": 2,
      "componentType": 5126,
      "count": 39517,
      "max": [
        0.9999945759773254,
        1.0,
        0.9999641180038452
      ],
      "min": [
        -0.9999613165855408,
        -0.3456266522407532,
        -0.9999789595603943
      ],
      "type": "VEC3"
    },
    {
      "bufferView": 3,
      "componentType": 5126,
      "count": 39517,
      "max": [
        0.9868407249450684,
        0.9868409037590027
      ],
      "min": [
        0.01315911952406168,
        0.013180196285247803
      ],
      "type": "VEC2"
    }
  ],
  "asset": {
    "generator": "CLO Network OnlineAuth 2024.2.136",
    "version": "2.0"
  },
  "bufferViews": [
    {
      "buffer": 0,
      "byteLength": 941280
    },
    {
      "buffer": 0,
      "byteLength": 474204,
      "byteOffset": 941280
    },
    {
      "buffer": 0,
      "byteLength": 474204,
      "byteOffset": 1415484
    },
    {
      "buffer": 0,
      "byteLength": 316136,
      "byteOffset": 1889688
    }
  ],
  "buffers": [
    {
      "byteLength": 2205824,
      "uri": "data:application/octet-stream;base64,"
    }
  ],
  "extensionsUsed": [
    "KHR_materials_specular"
  ],
  "materials": [
    {
      "doubleSided": true,
      "extensions": {
        "KHR_materials_specular": {
          "specularFactor": 0.15000000596046448
        }
      },
      "name": "06_3059036",
      "pbrMetallicRoughness": {
        "metallicFactor": 0.0,
        "roughnessFactor": 0.5
      }
    }
  ],
  "meshes": [
    {
      "name": "Pattern_811746",
      "primitives": [
        {
          "attributes": {
            "NORMAL": 2,
            "POSITION": 1,
            "TEXCOORD_0": 3
          },
          "indices": 0,
          "material": 0
        }
      ]
    }
  ],
  "nodes": [
    {
      "children": [
        1
      ],
      "name": "table_fabric_06_Scene_Node"
    },
    {
      "mesh": 0,
      "name": "Cloth"
    }
  ],
  "scene": 0,
  "scenes": [
    {
      "nodes": [
        0
      ]
    }
  ]
}