{
  "accessors": [
    {
      "bufferView": 0,
      "componentType": 5125,
      "count": 236160,
      "max": [
        39656
      ],
      "min": [
        0
      ],
      "type": "SCALAR"
    },
    {
      "bufferView": 1,
      "componentType": 5126,
      "count": 39657,
      "max": [
        0.2695135176181793,
        1.50014066696167,
        0.26599448919296265
      ],
      "min": [
        -0.26950761675834656,
        1.181541919708252,
        -0.26811638474464417
      ],
      "type": "VEC3"
    },
    {
      "bufferView": 2,
      "componentType": 5126,
      "count": 39657,
      "max": [
        0.9999925494194031,
        1.0,
        0.9999971985816956
      ],
      "min": [
        -0.9999886751174927,
        -0.3482598662376404,
        -0.9999815225601196
      ],
      "type": "VEC3"
    },
    {
      "bufferView": 3,
      "componentType": 5126,
      "count": 39657,
      "max": [
        0.9868407249450684,
        0.9868408441543579
      ],
      "min": [
        0.01315918006002903,
        0.013180136680603027
      ],
      "type": "VEC2"
    }
  ],
  "asset": {
    "generator": "CLO Network OnlineAuth 2024.2.136",
    "version": "2.0"
  },
  "bufferViews": [
    {
      "buffer": 0,
      "byteLength": 944640
    },
    {
      "buffer": 0,
      "byteLength": 475884,
      "byteOffset": 944640
    },
    {
      "buffer": 0,
      "byteLength": 475884,
      "byteOffset": 1420524
    },
    {
      "buffer": 0,
      "byteLength": 317256,
      "byteOffset": 1896408
    }
  ],
  "buffers": [
    {
      "byteLength": 2213664,
      "uri": "data:application/octet-stream;base64,"
    }
  ],
  "extensionsUsed": [
    "KHR_materials_specular"
  ],
  "materials": [
    {
      "doubleSided": true,
      "extensions": {
        "KHR_materials_specular": {
          "specularFactor": 0.15000000596046448
        }
      },
      "name": "09_3108055",
      "pbrMetallicRoughness": {
        "metallicFactor": 0.0,
        "roughnessFactor": 0.5
      }
    }
  ],
  "meshes": [
    {
      "name": "Pattern_811746",
      "primitives": [
        {
          "attributes": {
            "NORMAL": 2,
            "POSITION": 1,
            "TEXCOORD_0": 3
          },
          "indices": 0,
          "material": 0
        }
      ]
    }
  ],
  "nodes": [
    {
      "children": [
        1
      ],
      "name": "table_fabric_09_Scene_Node"
    },
    {
      "mesh": 0,
      "name": "Cloth"
    }
  ],
  "scene": 0,
  "scenes": [
    {
      "nodes": [
        0
      ]
    }
  ]
}