{
  "accessors": [
    {
      "bufferView": 0,
      "componentType": 5125,
      "count": 236802,
      "max": [
        39763
      ],
      "min": [
        0
      ],
      "type": "SCALAR"
    },
    {
      "bufferView": 1,
      "componentType": 5126,
      "count": 39764,
      "max": [
        0.22275815904140472,
        1.4986330270767212,
        0.22265981137752533
      ],
      "min": [
        -0.22349341213703156,
        1.1684672832489014,
        -0.22329086065292358
      ],
      "type": "VEC3"
    },
    {
      "bufferView": 2,
      "componentType": 5126,
      "count": 39764,
      "max": [
        1.0,
        1.0,
        0.9999913573265076
      ],
      "min": [
        -0.9999947547912598,
        -0.21335341036319733,
        -0.9999991059303284
      ],
      "type": "VEC3"
    },
    {
      "bufferView": 3,
      "componentType": 5126,
      "count": 39764,
      "max": [
        0.9868407249450684,
        0.9868408441543579
      ],
      "min": [
        0.013159088790416718,
        0.013180375099182129
      ],
      "type": "VEC2"
    }
  ],
  "asset": {
    "generator": "CLO Network OnlineAuth 2024.2.136",
    "version": "2.0"
  },
  "bufferViews": [
    {
      "buffer": 0,
      "byteLength": 947208
    },
    {
      "buffer": 0,
      "byteLength": 477168,
      "byteOffset": 947208
    },
    {
      "buffer": 0,
      "byteLength": 477168,
      "byteOffset": 1424376
    },
    {
      "buffer": 0,
      "byteLength": 318112,
      "byteOffset": 1901544
    }
  ],
  "buffers": [
    {
      "byteLength": 2219656,
      "uri": "data:application/octet-stream;base64,"
    }
  ],
  "extensionsUsed": [
    "KHR_materials_specular"
  ],
  "materials": [
    {
      "doubleSided": true,
      "extensions": {
        "KHR_materials_specular": {
          "specularFactor": 0.15000000596046448
        }
      },
      "name": "01_53209023",
      "pbrMetallicRoughness": {
        "metallicFactor": 0.0,
        "roughnessFactor": 0.5
      }
    }
  ],
  "meshes": [
    {
      "name": "Pattern_811749",
      "primitives": [
        {
          "attributes": {
            "NORMAL": 2,
            "POSITION": 1,
            "TEXCOORD_0": 3
          },
          "indices": 0,
          "material": 0
        }
      ]
    }
  ],
  "nodes": [
    {
      "children": [
        1
      ],
      "name": "table_fabric_01_Scene_Node"
    },
    {
      "mesh": 0,
      "name": "Cloth"
    }
  ],
  "scene": 0,
  "scenes": [
    {
      "nodes": [
        0
      ]
    }
  ]
}