{
  "accessors": [
    {
      "bufferView": 0,
      "componentType": 5125,
      "count": 235320,
      "max": [
        39516
      ],
      "min": [
        0
      ],
      "type": "SCALAR"
    },
    {
      "bufferView": 1,
      "componentType": 5126,
      "count": 39517,
      "max": [
        0.26446452736854553,
        1.4996815919876099,
        0.2628183364868164
      ],
      "min": [
        -0.25977224111557007,
        1.1809742450714111,
        -0.2628622055053711
      ],
      "type": "VEC3"
    },
    {
      "bufferView": 2,
      "componentType": 5126,
      "count": 39517,
      "max": [
        0.9999939799308777,
        1.0,
        0.9999909400939941
      ],
      "min": [
        -0.9999908804893494,
        -0.4253012537956238,
        -0.9999930262565613
      ],
      "type": "VEC3"
    },
    {
      "bufferView": 3,
      "componentType": 5126,
      "count": 39517,
      "max": [
        0.9868407249450684,
        0.9868409037590027
      ],
      "min": [
        0.01315911952406168,
        0.013180196285247803
      ],
      "type": "VEC2"
    }
  ],
  "asset": {
    "generator": "CLO Network OnlineAuth 2024.2.136",
    "version": "2.0"
  },
  "bufferViews": [
    {
      "buffer": 0,
      "byteLength": 941280
    },
    {
      "buffer": 0,
      "byteLength": 474204,
      "byteOffset": 941280
    },
    {
      "buffer": 0,
      "byteLength": 474204,
      "byteOffset": 1415484
    },
    {
      "buffer": 0,
      "byteLength": 316136,
      "byteOffset": 1889688
    }
  ],
  "buffers": [
    {
      "byteLength": 2205824,
      "uri": "data:application/octet-stream;base64,"
    }
  ],
  "extensionsUsed": [
    "KHR_materials_specular"
  ],
  "materials": [
    {
      "doubleSided": true,
      "extensions": {
        "KHR_materials_specular": {
          "specularFactor": 0.15000000596046448
        }
      },
      "name": "08_3086472",
      "pbrMetallicRoughness": {
        "metallicFactor": 0.0,
        "roughnessFactor": 0.5
      }
    }
  ],
  "meshes": [
    {
      "name": "Pattern_811746",
      "primitives": [
        {
          "attributes": {
            "NORMAL": 2,
            "POSITION": 1,
            "TEXCOORD_0": 3
          },
          "indices": 0,
          "material": 0
        }
      ]
    }
  ],
  "nodes": [
    {
      "children": [
        1
      ],
      "name": "table_fabric_08_Scene_Node"
    },
    {
      "mesh": 0,
      "name": "Cloth"
    }
  ],
  "scene": 0,
  "scenes": [
    {
      "nodes": [
        0
      ]
    }
  ]
}